<svg xmlns="http://www.w3.org/2000/svg" xmlns:xlink="http://www.w3.org/1999/xlink" width="500" zoomAndPan="magnify" viewBox="0 0 375 374.999991" height="500" preserveAspectRatio="xMidYMid meet" version="1.0"><defs><g/><clipPath id="6ef7835e2f"><path d="M 38 158 L 140 158 L 140 230.8125 L 38 230.8125 Z M 38 158 " clip-rule="nonzero"/></clipPath><clipPath id="4bc05a4c4e"><path d="M 47 163 L 138 163 L 138 230.8125 L 47 230.8125 Z M 47 163 " clip-rule="nonzero"/></clipPath><clipPath id="36e4678201"><path d="M 124 144.5625 L 187.5 144.5625 L 187.5 167 L 124 167 Z M 124 144.5625 " clip-rule="nonzero"/></clipPath></defs><rect x="-37.5" width="450" fill="#ffffff" y="-37.499999" height="449.999989" fill-opacity="1"/><rect x="-37.5" width="450" fill="#ffffff" y="-37.499999" height="449.999989" fill-opacity="1"/><g clip-path="url(#6ef7835e2f)"><path fill="#2986e2" d="M 48.21875 205.199219 C 45.628906 208.441406 43.578125 214.273438 45.21875 219.078125 C 46.246094 222.074219 48.832031 224.167969 52.242188 225.648438 C 55.035156 227.742188 59.261719 229.507812 65.421875 230.203125 C 45.546875 229.875 38.976562 222.074219 38.320312 216.53125 C 37.5 209.425781 41.402344 202.570312 48.175781 196.164062 C 62.34375 182.820312 89.195312 171.527344 112.4375 164.585938 C 122.417969 161.589844 131.777344 159.414062 139.128906 158.179688 C 129.5625 161.136719 120.816406 164.136719 112.808594 167.175781 C 76.507812 181.011719 56.222656 195.136719 48.21875 205.199219 Z M 48.21875 205.199219 " fill-opacity="1" fill-rule="nonzero"/></g><g clip-path="url(#4bc05a4c4e)"><path fill="#f4743c" d="M 56.472656 208.320312 C 54.210938 211.316406 52.527344 216.695312 54.089844 220.964844 C 55.976562 226.015625 62.917969 228.152344 70.351562 228.890625 C 78.890625 229.21875 86.324219 228.398438 86.324219 228.398438 C 84.515625 228.726562 82.75 228.972656 81.027344 229.21875 C 75.113281 230 69.9375 230.328125 65.464844 230.246094 C 59.261719 229.546875 55.035156 227.78125 52.28125 225.6875 C 49.449219 223.550781 48.136719 221.046875 47.804688 218.871094 C 46.902344 212.464844 50.230469 206.140625 56.222656 200.148438 C 68.75 187.664062 92.851562 176.742188 113.753906 169.84375 C 122.746094 166.84375 131.164062 164.628906 137.773438 163.355469 C 129.152344 166.269531 121.308594 169.226562 114.121094 172.183594 C 81.476562 185.609375 63.453125 198.957031 56.472656 208.320312 Z M 56.472656 208.320312 " fill-opacity="1" fill-rule="nonzero"/></g><g clip-path="url(#36e4678201)"><path fill="#2986e2" d="M 187.171875 148.65625 C 186.390625 147.957031 184.667969 146.847656 181.21875 146.519531 C 179 146.316406 176.78125 146.5625 174.648438 147.136719 L 160.277344 151.035156 L 134.53125 144.671875 L 127.425781 146.847656 L 146.929688 154.816406 L 135.761719 158.839844 L 129.683594 156.828125 L 126.398438 157.648438 L 130.503906 161.015625 C 130.503906 161.015625 123.238281 163.929688 124.675781 166.066406 C 126.398438 168.570312 179.902344 151.777344 187.007812 149.558594 C 187.375 149.394531 187.5 148.902344 187.171875 148.65625 Z M 187.171875 148.65625 " fill-opacity="1" fill-rule="nonzero"/></g><g fill="#402978" fill-opacity="1"><g transform="translate(66.878437, 217.803238)"><g><path d="M 19.375 -20.203125 L 11.828125 -20.203125 L 11.828125 0 L 7.8125 0 L 7.8125 -20.203125 L 0.3125 -20.203125 L 0.3125 -23.796875 L 19.375 -23.796875 Z M 19.375 -20.203125 "/></g></g></g><g fill="#402978" fill-opacity="1"><g transform="translate(85.983979, 217.803238)"><g><path d="M 18.21875 0 L 13.875 -7.203125 C 13.644531 -7.179688 13.28125 -7.171875 12.78125 -7.171875 L 7.140625 -7.171875 L 7.140625 0 L 3.125 0 L 3.125 -23.796875 L 12.78125 -23.796875 C 15.820312 -23.796875 18.179688 -23.085938 19.859375 -21.671875 C 21.535156 -20.253906 22.375 -18.253906 22.375 -15.671875 C 22.375 -13.765625 21.945312 -12.15625 21.09375 -10.84375 C 20.25 -9.53125 19.03125 -8.566406 17.4375 -7.953125 L 22.78125 0 Z M 7.140625 -10.78125 L 12.78125 -10.78125 C 16.632812 -10.78125 18.5625 -12.378906 18.5625 -15.578125 C 18.5625 -18.660156 16.632812 -20.203125 12.78125 -20.203125 L 7.140625 -20.203125 Z M 7.140625 -10.78125 "/></g></g></g><g fill="#402978" fill-opacity="1"><g transform="translate(109.984962, 217.803238)"><g><path d="M 7.140625 0 L 3.125 0 L 3.125 -23.796875 L 7.140625 -23.796875 Z M 7.140625 0 "/></g></g></g><g fill="#402978" fill-opacity="1"><g transform="translate(119.673586, 217.803238)"><g><path d="M 3.125 -23.796875 L 12.609375 -23.796875 C 15.609375 -23.796875 17.925781 -23.085938 19.5625 -21.671875 C 21.207031 -20.253906 22.03125 -18.253906 22.03125 -15.671875 C 22.03125 -12.972656 21.207031 -10.878906 19.5625 -9.390625 C 17.925781 -7.910156 15.609375 -7.171875 12.609375 -7.171875 L 7.140625 -7.171875 L 7.140625 0 L 3.125 0 Z M 7.140625 -20.203125 L 7.140625 -10.78125 L 12.4375 -10.78125 C 16.269531 -10.78125 18.1875 -12.378906 18.1875 -15.578125 C 18.1875 -18.660156 16.269531 -20.203125 12.4375 -20.203125 Z M 7.140625 -20.203125 "/></g></g></g><g fill="#402978" fill-opacity="1"><g transform="translate(141.974767, 217.803238)"><g><path d="M 18.5 -5.375 L 6.5 -5.375 L 4.21875 0 L 0.03125 0 L 10.546875 -23.796875 L 14.65625 -23.796875 L 25.0625 0 L 20.78125 0 Z M 16.96875 -8.9375 L 12.484375 -19.515625 L 7.984375 -8.9375 Z M 16.96875 -8.9375 "/></g></g></g><g fill="#402978" fill-opacity="1"><g transform="translate(166.485687, 217.803238)"><g><path d="M 3.125 -23.796875 L 12.890625 -23.796875 C 16.441406 -23.796875 19.378906 -22.671875 21.703125 -20.421875 C 24.023438 -18.179688 25.1875 -15.335938 25.1875 -11.890625 C 25.1875 -8.453125 24.019531 -5.609375 21.6875 -3.359375 C 19.351562 -1.117188 16.382812 0 12.78125 0 L 3.125 0 Z M 7.140625 -20.203125 L 7.140625 -3.609375 L 12.984375 -3.609375 C 15.316406 -3.609375 17.257812 -4.382812 18.8125 -5.9375 C 20.363281 -7.488281 21.140625 -9.460938 21.140625 -11.859375 C 21.140625 -14.265625 20.34375 -16.253906 18.75 -17.828125 C 17.15625 -19.410156 15.175781 -20.203125 12.8125 -20.203125 Z M 7.140625 -20.203125 "/></g></g></g><g fill="#402978" fill-opacity="1"><g transform="translate(192.254461, 217.803238)"><g><path d="M 13.734375 0 L 9.59375 0 L 0.109375 -23.796875 L 4.421875 -23.796875 L 11.765625 -4.453125 L 19.171875 -23.796875 L 23.359375 -23.796875 Z M 13.734375 0 "/></g></g></g><g fill="#402978" fill-opacity="1"><g transform="translate(215.133568, 217.803238)"><g><path d="M 7.140625 0 L 3.125 0 L 3.125 -23.796875 L 7.140625 -23.796875 Z M 7.140625 0 "/></g></g></g><g fill="#402978" fill-opacity="1"><g transform="translate(224.822193, 217.803238)"><g><path d="M 10.953125 -23.96875 C 14.035156 -23.96875 16.8125 -23.148438 19.28125 -21.515625 L 17.609375 -17.984375 C 15.179688 -19.460938 12.859375 -20.203125 10.640625 -20.203125 C 9.441406 -20.203125 8.492188 -19.984375 7.796875 -19.546875 C 7.109375 -19.117188 6.765625 -18.507812 6.765625 -17.71875 C 6.765625 -16.925781 7.082031 -16.25 7.71875 -15.6875 C 8.351562 -15.132812 9.144531 -14.726562 10.09375 -14.46875 C 11.050781 -14.207031 12.082031 -13.878906 13.1875 -13.484375 C 14.300781 -13.085938 15.332031 -12.664062 16.28125 -12.21875 C 17.238281 -11.78125 18.023438 -11.085938 18.640625 -10.140625 C 19.265625 -9.203125 19.578125 -8.066406 19.578125 -6.734375 C 19.578125 -4.648438 18.742188 -2.984375 17.078125 -1.734375 C 15.421875 -0.484375 13.265625 0.140625 10.609375 0.140625 C 8.796875 0.140625 7.035156 -0.195312 5.328125 -0.875 C 3.628906 -1.5625 2.148438 -2.484375 0.890625 -3.640625 L 2.625 -7.109375 C 3.820312 -5.992188 5.140625 -5.132812 6.578125 -4.53125 C 8.015625 -3.9375 9.378906 -3.640625 10.671875 -3.640625 C 12.078125 -3.640625 13.171875 -3.894531 13.953125 -4.40625 C 14.734375 -4.914062 15.125 -5.625 15.125 -6.53125 C 15.125 -7.34375 14.804688 -8.023438 14.171875 -8.578125 C 13.535156 -9.140625 12.742188 -9.550781 11.796875 -9.8125 C 10.847656 -10.070312 9.816406 -10.390625 8.703125 -10.765625 C 7.585938 -11.140625 6.554688 -11.535156 5.609375 -11.953125 C 4.660156 -12.367188 3.867188 -13.039062 3.234375 -13.96875 C 2.597656 -14.90625 2.28125 -16.03125 2.28125 -17.34375 C 2.28125 -19.351562 3.070312 -20.957031 4.65625 -22.15625 C 6.238281 -23.363281 8.335938 -23.96875 10.953125 -23.96875 Z M 10.953125 -23.96875 "/></g></g></g><g fill="#402978" fill-opacity="1"><g transform="translate(245.38957, 217.803238)"><g><path d="M 4.796875 -20.453125 C 7.222656 -22.753906 10.210938 -23.90625 13.765625 -23.90625 C 17.328125 -23.90625 20.320312 -22.753906 22.75 -20.453125 C 25.175781 -18.148438 26.390625 -15.296875 26.390625 -11.890625 C 26.390625 -8.492188 25.175781 -5.632812 22.75 -3.3125 C 20.320312 -0.988281 17.328125 0.171875 13.765625 0.171875 C 10.210938 0.171875 7.222656 -0.988281 4.796875 -3.3125 C 2.367188 -5.632812 1.15625 -8.492188 1.15625 -11.890625 C 1.15625 -15.296875 2.367188 -18.148438 4.796875 -20.453125 Z M 13.796875 -20.296875 C 11.441406 -20.296875 9.425781 -19.484375 7.75 -17.859375 C 6.070312 -16.242188 5.234375 -14.253906 5.234375 -11.890625 C 5.234375 -9.535156 6.078125 -7.535156 7.765625 -5.890625 C 9.453125 -4.253906 11.460938 -3.4375 13.796875 -3.4375 C 16.140625 -3.4375 18.132812 -4.253906 19.78125 -5.890625 C 21.4375 -7.535156 22.265625 -9.535156 22.265625 -11.890625 C 22.265625 -14.253906 21.4375 -16.242188 19.78125 -17.859375 C 18.132812 -19.484375 16.140625 -20.296875 13.796875 -20.296875 Z M 13.796875 -20.296875 "/></g></g></g><g fill="#402978" fill-opacity="1"><g transform="translate(272.34821, 217.803238)"><g><path d="M 18.21875 0 L 13.875 -7.203125 C 13.644531 -7.179688 13.28125 -7.171875 12.78125 -7.171875 L 7.140625 -7.171875 L 7.140625 0 L 3.125 0 L 3.125 -23.796875 L 12.78125 -23.796875 C 15.820312 -23.796875 18.179688 -23.085938 19.859375 -21.671875 C 21.535156 -20.253906 22.375 -18.253906 22.375 -15.671875 C 22.375 -13.765625 21.945312 -12.15625 21.09375 -10.84375 C 20.25 -9.53125 19.03125 -8.566406 17.4375 -7.953125 L 22.78125 0 Z M 7.140625 -10.78125 L 12.78125 -10.78125 C 16.632812 -10.78125 18.5625 -12.378906 18.5625 -15.578125 C 18.5625 -18.660156 16.632812 -20.203125 12.78125 -20.203125 L 7.140625 -20.203125 Z M 7.140625 -10.78125 "/></g></g></g><g fill="#402978" fill-opacity="1"><g transform="translate(231.449931, 227.587514)"><g><path d="M 4.140625 -6.78125 L 4.140625 -6.078125 L 2.484375 -6.078125 L 2.484375 0 L 1.734375 0 L 1.734375 -6.078125 L 0.09375 -6.078125 L 0.09375 -6.78125 Z M 4.140625 -6.78125 "/></g></g></g><g fill="#402978" fill-opacity="1"><g transform="translate(235.679964, 227.587514)"><g><path d="M 0.34375 -3.390625 C 0.34375 -4.003906 0.5 -4.582031 0.8125 -5.125 C 1.125 -5.664062 1.550781 -6.097656 2.09375 -6.421875 C 2.644531 -6.742188 3.238281 -6.90625 3.875 -6.90625 C 4.507812 -6.90625 5.097656 -6.75 5.640625 -6.4375 C 6.179688 -6.125 6.613281 -5.691406 6.9375 -5.140625 C 7.257812 -4.597656 7.421875 -4.015625 7.421875 -3.390625 C 7.421875 -2.765625 7.257812 -2.179688 6.9375 -1.640625 C 6.625 -1.097656 6.195312 -0.671875 5.65625 -0.359375 C 5.113281 -0.046875 4.519531 0.109375 3.875 0.109375 C 3.25 0.109375 2.660156 -0.0390625 2.109375 -0.34375 C 1.566406 -0.65625 1.132812 -1.082031 0.8125 -1.625 C 0.5 -2.175781 0.34375 -2.765625 0.34375 -3.390625 Z M 3.875 -6.203125 C 3.363281 -6.203125 2.894531 -6.070312 2.46875 -5.8125 C 2.050781 -5.550781 1.71875 -5.207031 1.46875 -4.78125 C 1.21875 -4.351562 1.09375 -3.890625 1.09375 -3.390625 C 1.09375 -2.890625 1.21875 -2.421875 1.46875 -1.984375 C 1.726562 -1.554688 2.070312 -1.210938 2.5 -0.953125 C 2.925781 -0.703125 3.382812 -0.578125 3.875 -0.578125 C 4.375 -0.578125 4.84375 -0.707031 5.28125 -0.96875 C 5.71875 -1.226562 6.054688 -1.570312 6.296875 -2 C 6.535156 -2.4375 6.65625 -2.898438 6.65625 -3.390625 C 6.65625 -3.898438 6.53125 -4.367188 6.28125 -4.796875 C 6.03125 -5.234375 5.691406 -5.578125 5.265625 -5.828125 C 4.835938 -6.078125 4.375 -6.203125 3.875 -6.203125 Z M 3.875 -6.203125 "/></g></g></g><g fill="#402978" fill-opacity="1"><g transform="translate(243.438016, 227.587514)"><g><path d="M 1.421875 -6.78125 L 1.421875 -2.59375 C 1.421875 -2.03125 1.484375 -1.628906 1.609375 -1.390625 C 1.734375 -1.148438 1.9375 -0.953125 2.21875 -0.796875 C 2.5 -0.648438 2.789062 -0.578125 3.09375 -0.578125 C 3.375 -0.578125 3.632812 -0.640625 3.875 -0.765625 C 4.125 -0.898438 4.304688 -1.039062 4.421875 -1.1875 C 4.546875 -1.34375 4.628906 -1.519531 4.671875 -1.71875 C 4.722656 -1.914062 4.75 -2.21875 4.75 -2.625 L 4.75 -6.78125 L 5.515625 -6.78125 L 5.515625 -2.453125 C 5.515625 -2.015625 5.46875 -1.65625 5.375 -1.375 C 5.28125 -1.101562 5.113281 -0.847656 4.875 -0.609375 C 4.644531 -0.378906 4.375 -0.203125 4.0625 -0.078125 C 3.75 0.046875 3.425781 0.109375 3.09375 0.109375 C 2.664062 0.109375 2.265625 0.0078125 1.890625 -0.1875 C 1.515625 -0.382812 1.21875 -0.648438 1 -0.984375 C 0.78125 -1.328125 0.671875 -1.820312 0.671875 -2.46875 L 0.671875 -6.78125 Z M 1.421875 -6.78125 "/></g></g></g><g fill="#402978" fill-opacity="1"><g transform="translate(249.603063, 227.587514)"><g><path d="M 1.71875 -6.78125 C 3.34375 -6.78125 4.15625 -6.15625 4.15625 -4.90625 C 4.15625 -4.382812 4 -3.953125 3.6875 -3.609375 C 3.382812 -3.273438 2.972656 -3.085938 2.453125 -3.046875 L 4.609375 0 L 3.6875 0 L 1.625 -2.984375 L 1.4375 -2.984375 L 1.4375 0 L 0.6875 0 L 0.6875 -6.78125 Z M 1.4375 -3.640625 L 1.765625 -3.640625 C 2.304688 -3.640625 2.710938 -3.738281 2.984375 -3.9375 C 3.253906 -4.132812 3.390625 -4.441406 3.390625 -4.859375 C 3.390625 -5.304688 3.253906 -5.617188 2.984375 -5.796875 C 2.722656 -5.984375 2.34375 -6.078125 1.84375 -6.078125 L 1.4375 -6.078125 Z M 1.4375 -3.640625 "/></g></g></g><g fill="#402978" fill-opacity="1"><g transform="translate(254.481095, 227.587514)"><g><path d="M 1.453125 -6.78125 L 1.453125 0 L 0.703125 0 L 0.703125 -6.78125 Z M 1.453125 -6.78125 "/></g></g></g><g fill="#402978" fill-opacity="1"><g transform="translate(256.632115, 227.587514)"><g><path d="M 3.765625 -5.46875 C 3.609375 -5.726562 3.4375 -5.914062 3.25 -6.03125 C 3.070312 -6.144531 2.851562 -6.203125 2.59375 -6.203125 C 2.269531 -6.203125 2 -6.097656 1.78125 -5.890625 C 1.570312 -5.691406 1.46875 -5.441406 1.46875 -5.140625 C 1.46875 -4.921875 1.554688 -4.726562 1.734375 -4.5625 C 1.910156 -4.394531 2.125 -4.253906 2.375 -4.140625 C 2.625 -4.035156 2.847656 -3.9375 3.046875 -3.84375 C 3.253906 -3.757812 3.492188 -3.632812 3.765625 -3.46875 C 4.035156 -3.300781 4.242188 -3.09375 4.390625 -2.84375 C 4.535156 -2.59375 4.609375 -2.304688 4.609375 -1.984375 C 4.609375 -1.609375 4.515625 -1.257812 4.328125 -0.9375 C 4.140625 -0.613281 3.878906 -0.359375 3.546875 -0.171875 C 3.222656 0.015625 2.863281 0.109375 2.46875 0.109375 C 1.9375 0.109375 1.476562 -0.046875 1.09375 -0.359375 C 0.71875 -0.671875 0.472656 -1.097656 0.359375 -1.640625 L 1.09375 -1.84375 C 1.15625 -1.46875 1.3125 -1.160156 1.5625 -0.921875 C 1.8125 -0.691406 2.109375 -0.578125 2.453125 -0.578125 C 2.835938 -0.578125 3.164062 -0.707031 3.4375 -0.96875 C 3.71875 -1.226562 3.859375 -1.539062 3.859375 -1.90625 C 3.859375 -2.226562 3.75 -2.492188 3.53125 -2.703125 C 3.320312 -2.910156 2.9375 -3.125 2.375 -3.34375 C 1.820312 -3.570312 1.40625 -3.820312 1.125 -4.09375 C 0.851562 -4.375 0.71875 -4.734375 0.71875 -5.171875 C 0.71875 -5.679688 0.898438 -6.097656 1.265625 -6.421875 C 1.640625 -6.742188 2.085938 -6.90625 2.609375 -6.90625 C 2.992188 -6.90625 3.332031 -6.8125 3.625 -6.625 C 3.925781 -6.445312 4.171875 -6.1875 4.359375 -5.84375 Z M 3.765625 -5.46875 "/></g></g></g><g fill="#402978" fill-opacity="1"><g transform="translate(261.663155, 227.587514)"><g><path d="M 4.140625 -6.78125 L 4.140625 -6.078125 L 2.484375 -6.078125 L 2.484375 0 L 1.734375 0 L 1.734375 -6.078125 L 0.09375 -6.078125 L 0.09375 -6.78125 Z M 4.140625 -6.78125 "/></g></g></g><g fill="#402978" fill-opacity="1"><g transform="translate(265.893188, 227.587514)"><g/></g></g><g fill="#402978" fill-opacity="1"><g transform="translate(268.665211, 227.587514)"><g><path d="M 6.140625 -4.921875 C 5.859375 -5.328125 5.523438 -5.640625 5.140625 -5.859375 C 4.753906 -6.085938 4.3125 -6.203125 3.8125 -6.203125 C 3.320312 -6.203125 2.863281 -6.070312 2.4375 -5.8125 C 2.007812 -5.550781 1.671875 -5.203125 1.421875 -4.765625 C 1.171875 -4.335938 1.046875 -3.867188 1.046875 -3.359375 C 1.046875 -2.859375 1.175781 -2.390625 1.4375 -1.953125 C 1.707031 -1.523438 2.050781 -1.1875 2.46875 -0.9375 C 2.894531 -0.695312 3.328125 -0.578125 3.765625 -0.578125 C 4.171875 -0.578125 4.554688 -0.671875 4.921875 -0.859375 C 5.296875 -1.046875 5.597656 -1.300781 5.828125 -1.625 C 6.066406 -1.945312 6.1875 -2.304688 6.1875 -2.703125 L 4.171875 -2.703125 L 4.171875 -3.40625 L 7 -3.40625 L 7 -3.03125 C 7 -2.582031 6.921875 -2.164062 6.765625 -1.78125 C 6.617188 -1.40625 6.390625 -1.070312 6.078125 -0.78125 C 5.765625 -0.5 5.410156 -0.28125 5.015625 -0.125 C 4.617188 0.03125 4.207031 0.109375 3.78125 0.109375 C 3.164062 0.109375 2.585938 -0.0390625 2.046875 -0.34375 C 1.503906 -0.65625 1.070312 -1.082031 0.75 -1.625 C 0.4375 -2.175781 0.28125 -2.757812 0.28125 -3.375 C 0.28125 -4 0.441406 -4.582031 0.765625 -5.125 C 1.085938 -5.675781 1.519531 -6.109375 2.0625 -6.421875 C 2.613281 -6.742188 3.203125 -6.90625 3.828125 -6.90625 C 4.421875 -6.90625 4.953125 -6.773438 5.421875 -6.515625 C 5.898438 -6.265625 6.328125 -5.90625 6.703125 -5.4375 Z M 6.140625 -4.921875 "/></g></g></g><g fill="#402978" fill-opacity="1"><g transform="translate(276.045265, 227.587514)"><g><path d="M 1.421875 -6.78125 L 1.421875 -2.59375 C 1.421875 -2.03125 1.484375 -1.628906 1.609375 -1.390625 C 1.734375 -1.148438 1.9375 -0.953125 2.21875 -0.796875 C 2.5 -0.648438 2.789062 -0.578125 3.09375 -0.578125 C 3.375 -0.578125 3.632812 -0.640625 3.875 -0.765625 C 4.125 -0.898438 4.304688 -1.039062 4.421875 -1.1875 C 4.546875 -1.34375 4.628906 -1.519531 4.671875 -1.71875 C 4.722656 -1.914062 4.75 -2.21875 4.75 -2.625 L 4.75 -6.78125 L 5.515625 -6.78125 L 5.515625 -2.453125 C 5.515625 -2.015625 5.46875 -1.65625 5.375 -1.375 C 5.28125 -1.101562 5.113281 -0.847656 4.875 -0.609375 C 4.644531 -0.378906 4.375 -0.203125 4.0625 -0.078125 C 3.75 0.046875 3.425781 0.109375 3.09375 0.109375 C 2.664062 0.109375 2.265625 0.0078125 1.890625 -0.1875 C 1.515625 -0.382812 1.21875 -0.648438 1 -0.984375 C 0.78125 -1.328125 0.671875 -1.820312 0.671875 -2.46875 L 0.671875 -6.78125 Z M 1.421875 -6.78125 "/></g></g></g><g fill="#402978" fill-opacity="1"><g transform="translate(282.210311, 227.587514)"><g><path d="M 1.453125 -6.78125 L 1.453125 0 L 0.703125 0 L 0.703125 -6.78125 Z M 1.453125 -6.78125 "/></g></g></g><g fill="#402978" fill-opacity="1"><g transform="translate(284.361331, 227.587514)"><g><path d="M 2.109375 -6.78125 C 2.734375 -6.78125 3.269531 -6.6875 3.71875 -6.5 C 4.175781 -6.3125 4.550781 -6.054688 4.84375 -5.734375 C 5.144531 -5.410156 5.367188 -5.046875 5.515625 -4.640625 C 5.660156 -4.242188 5.734375 -3.816406 5.734375 -3.359375 C 5.734375 -2.785156 5.597656 -2.242188 5.328125 -1.734375 C 5.066406 -1.234375 4.671875 -0.816406 4.140625 -0.484375 C 3.617188 -0.160156 2.941406 0 2.109375 0 L 0.6875 0 L 0.6875 -6.78125 Z M 2.15625 -0.703125 C 2.570312 -0.703125 2.945312 -0.765625 3.28125 -0.890625 C 3.613281 -1.015625 3.910156 -1.195312 4.171875 -1.4375 C 4.429688 -1.6875 4.628906 -1.976562 4.765625 -2.3125 C 4.910156 -2.65625 4.984375 -3.015625 4.984375 -3.390625 C 4.984375 -3.878906 4.867188 -4.320312 4.640625 -4.71875 C 4.421875 -5.125 4.109375 -5.453125 3.703125 -5.703125 C 3.304688 -5.953125 2.765625 -6.078125 2.078125 -6.078125 L 1.4375 -6.078125 L 1.4375 -0.703125 Z M 2.15625 -0.703125 "/></g></g></g><g fill="#402978" fill-opacity="1"><g transform="translate(290.463377, 227.587514)"><g><path d="M 4.203125 -6.78125 L 4.203125 -6.078125 L 1.4375 -6.078125 L 1.4375 -4.0625 L 4.125 -4.0625 L 4.125 -3.359375 L 1.4375 -3.359375 L 1.4375 -0.703125 L 4.203125 -0.703125 L 4.203125 0 L 0.6875 0 L 0.6875 -6.78125 Z M 4.203125 -6.78125 "/></g></g></g></svg>